                <!-- <svg width="251.85" height="37" viewBox="0 0 260 36" xmlns="http://www.w3.org/2000/svg">
                    <g id="svgGroup" stroke-linecap="round" fill-rule="evenodd" font-size="9pt" stroke="#000"
                        stroke-width="1mm" fill="none" style="stroke:#000;stroke-width:1mm;fill:none">
                        <path
                            d="M 29.25 36 L 6.75 36 Q 4.9 36 3.35 35.1 Q 1.8 34.2 0.9 32.65 Q 0 31.1 0 29.25 L 0 6.75 Q 0 4.9 0.9 3.35 Q 1.8 1.8 3.35 0.9 Q 4.9 0 6.75 0 L 29.25 0 Q 31.1 0 32.625 0.9 Q 34.15 1.8 35.075 3.35 Q 36 4.9 36 6.75 L 36 9.2 L 29.95 9.2 L 29.95 6.95 A 0.946 0.946 0 0 0 29.899 6.634 A 0.81 0.81 0 0 0 29.675 6.3 A 0.954 0.954 0 0 0 29.062 6.052 A 1.235 1.235 0 0 0 29 6.05 L 6.9 6.05 A 0.899 0.899 0 0 0 6.295 6.283 A 1.156 1.156 0 0 0 6.275 6.3 A 0.827 0.827 0 0 0 6.001 6.898 A 1.122 1.122 0 0 0 6 6.95 L 6 29.05 A 0.946 0.946 0 0 0 6.051 29.366 A 0.81 0.81 0 0 0 6.275 29.7 A 0.973 0.973 0 0 0 6.574 29.89 A 0.884 0.884 0 0 0 6.9 29.95 L 29 29.95 A 1.059 1.059 0 0 0 29.358 29.892 A 0.934 0.934 0 0 0 29.675 29.7 A 0.827 0.827 0 0 0 29.949 29.103 A 1.122 1.122 0 0 0 29.95 29.05 L 29.95 22 L 21.65 22 L 21.65 15.95 L 36 15.95 L 36 29.25 Q 36 31.1 35.075 32.65 Q 34.15 34.2 32.625 35.1 Q 31.1 36 29.25 36 Z M 251.85 36 L 218.8 36 L 218.8 0 L 251.85 0 L 251.85 6.05 L 224.85 6.05 L 224.85 14.95 L 246.6 14.95 L 246.6 21.05 L 224.85 21.05 L 224.85 29.95 L 251.85 29.95 L 251.85 36 Z M 183.1 36 L 177.1 36 L 177.1 0 L 183.95 0 L 207.05 27.5 L 207.05 0 L 213.1 0 L 213.1 36 L 206.25 36 L 183.1 8.45 L 183.1 36 Z M 41.4 29.25 L 41.4 0 L 47.4 0 L 47.4 29.05 A 0.946 0.946 0 0 0 47.451 29.366 A 0.81 0.81 0 0 0 47.675 29.7 A 0.973 0.973 0 0 0 47.974 29.89 A 0.884 0.884 0 0 0 48.3 29.95 L 70.4 29.95 A 1.059 1.059 0 0 0 70.758 29.892 A 0.934 0.934 0 0 0 71.075 29.7 A 0.827 0.827 0 0 0 71.349 29.103 A 1.122 1.122 0 0 0 71.35 29.05 L 71.35 0 L 77.4 0 L 77.4 29.25 Q 77.4 31.1 76.475 32.65 Q 75.55 34.2 74.025 35.1 Q 72.5 36 70.65 36 L 48.15 36 Q 46.3 36 44.75 35.1 Q 43.2 34.2 42.3 32.65 Q 41.4 31.1 41.4 29.25 Z M 83.05 36 L 83.05 0 L 110.85 0 Q 112.7 0 114.225 0.9 Q 115.75 1.8 116.675 3.35 Q 117.6 4.9 117.6 6.75 L 117.6 13.9 Q 117.6 14.6 117.475 15.225 A 5.384 5.384 0 0 1 117.108 16.383 A 5.077 5.077 0 0 1 117.1 16.4 A 14.394 14.394 0 0 1 117.994 17.799 A 11.581 11.581 0 0 1 118.525 18.875 Q 119.05 20.1 119.05 21.35 L 119.05 29.25 Q 119.05 31.1 118.125 32.65 Q 117.2 34.2 115.675 35.1 Q 114.15 36 112.3 36 L 83.05 36 Z M 164.85 36 L 142.35 36 Q 140.5 36 138.95 35.1 Q 137.4 34.2 136.5 32.65 Q 135.6 31.1 135.6 29.25 L 135.6 6.75 Q 135.6 4.9 136.5 3.35 Q 137.4 1.8 138.95 0.9 Q 140.5 0 142.35 0 L 164.85 0 Q 166.7 0 168.225 0.9 Q 169.75 1.8 170.675 3.35 Q 171.6 4.9 171.6 6.75 L 171.6 29.25 Q 171.6 31.1 170.675 32.65 Q 169.75 34.2 168.225 35.1 Q 166.7 36 164.85 36 Z M 142.5 29.95 L 164.6 29.95 A 1.059 1.059 0 0 0 164.958 29.892 A 0.934 0.934 0 0 0 165.275 29.7 A 0.827 0.827 0 0 0 165.549 29.103 A 1.122 1.122 0 0 0 165.55 29.05 L 165.55 6.95 A 0.946 0.946 0 0 0 165.499 6.634 A 0.81 0.81 0 0 0 165.275 6.3 A 0.954 0.954 0 0 0 164.662 6.052 A 1.235 1.235 0 0 0 164.6 6.05 L 142.5 6.05 A 0.899 0.899 0 0 0 141.895 6.283 A 1.156 1.156 0 0 0 141.875 6.3 A 0.827 0.827 0 0 0 141.601 6.898 A 1.122 1.122 0 0 0 141.6 6.95 L 141.6 29.05 A 0.946 0.946 0 0 0 141.651 29.366 A 0.81 0.81 0 0 0 141.875 29.7 A 0.973 0.973 0 0 0 142.174 29.89 A 0.884 0.884 0 0 0 142.5 29.95 Z M 89.95 29.95 L 112.05 29.95 A 1.059 1.059 0 0 0 112.408 29.892 A 0.934 0.934 0 0 0 112.725 29.7 A 0.827 0.827 0 0 0 112.999 29.103 A 1.122 1.122 0 0 0 113 29.05 L 113 21.6 A 0.946 0.946 0 0 0 112.949 21.284 A 0.81 0.81 0 0 0 112.725 20.95 A 0.954 0.954 0 0 0 112.112 20.702 A 1.235 1.235 0 0 0 112.05 20.7 L 89.95 20.7 A 0.899 0.899 0 0 0 89.345 20.933 A 1.156 1.156 0 0 0 89.325 20.95 A 0.827 0.827 0 0 0 89.051 21.548 A 1.122 1.122 0 0 0 89.05 21.6 L 89.05 29.05 A 0.946 0.946 0 0 0 89.101 29.366 A 0.81 0.81 0 0 0 89.325 29.7 A 0.973 0.973 0 0 0 89.624 29.89 A 0.884 0.884 0 0 0 89.95 29.95 Z M 89.95 14.65 L 110.6 14.65 A 0.946 0.946 0 0 0 110.916 14.6 A 0.81 0.81 0 0 0 111.25 14.375 A 0.973 0.973 0 0 0 111.44 14.077 A 0.884 0.884 0 0 0 111.5 13.75 L 111.5 6.95 A 1.042 1.042 0 0 0 111.459 6.65 A 0.82 0.82 0 0 0 111.25 6.3 A 0.842 0.842 0 0 0 110.745 6.059 A 1.157 1.157 0 0 0 110.6 6.05 L 89.95 6.05 A 0.899 0.899 0 0 0 89.345 6.283 A 1.156 1.156 0 0 0 89.325 6.3 A 0.827 0.827 0 0 0 89.051 6.898 A 1.122 1.122 0 0 0 89.05 6.95 L 89.05 13.75 A 0.835 0.835 0 0 0 89.252 14.295 A 1.134 1.134 0 0 0 89.325 14.375 Q 89.6 14.65 89.95 14.65 Z M 130.35 36 L 124.4 36 L 124.4 30.05 L 130.35 30.05 L 130.35 36 Z"
                            vector-effect="non-scaling-stroke" />
                    </g>
                </svg> -->
                <svg id="main-logo" xmlns="http://www.w3.org/2000/svg" xmlns:xlink="http://www.w3.org/1999/xlink"
                    viewBox="0 0 260 36" shape-rendering="geometricPrecision" text-rendering="geometricPrecision">
                    <path
                        d="M29.25,36h-22.5q-1.85,0-3.4-.9t-2.45-2.45-.9-3.4v-22.5q0-1.85.9-3.4t2.45-2.45t3.4-.9h22.5q1.85,0,3.375.9t2.45,2.45.925,3.4l.015482,2.45-6.065481.000001L29.95,6.95c.001073-.107466-.016174-.214328-.051-.316-.045402-.128394-.122443-.243267-.224-.334-.168232-.153105-.385635-.241059-.613-.248-.020647-.001186-.04132-.001853-.062-.002h-22.1c-.223627-.000284-.439332.082789-.605.233-.006731.005591-.013398.011258-.02.017-.170088.152874-.269279.369356-.274.598-.000735.017323-.001069.034661-.001.052v22.1c-.001073.107466.016174.214328.051.316.045402.128394.122443.243267.224.334.0872.081096.188546.145497.299.19.103911.040377.214522.060735.326.06h22.1c.121781.001396.24289-.018225.358-.058.117431-.042183.225219-.107468.317-.192.169837-.152638.269004-.368706.274-.597.000751-.017656.001084-.035328.001-.053v-7.05h-8.3v-6.05h14.35v13.3q0,1.85-.925,3.4t-2.45,2.45-3.375.9Zm222.6,0h-33.05v-36h33.05v6.05h-27v8.9h21.75v6.1h-21.75v8.9h27v6.05ZM183.1,36h-6v-36h6.85l23.1,27.5v-27.5h6.05v36h-6.85L183.1,8.45v27.55ZM41.4,29.25L41.4,0h6v29.05c-.001073.107466.016174.214328.051.316.045402.128394.122443.243267.224.334.0872.081096.188546.145497.299.19.103911.040377.214522.060735.326.06h22.1c.121781.001396.24289-.018225.358-.058.117431-.042183.225219-.107468.317-.192.169837-.152638.269004-.368706.274-.597.000751-.017656.001084-.035328.001-.053v-29.05h6.05v29.25q0,1.85-.925,3.4t-2.45,2.45-3.375.9h-22.5q-1.85,0-3.4-.9t-2.45-2.45-.9-3.4ZM83.05,36v-36h27.8q1.85,0,3.375.9t2.45,2.45.925,3.4v7.15q0,.7-.125,1.325c-.078257.398609-.201373.787081-.367,1.158-.002656.005672-.005323.011338-.008.017.324668.448744.623165.915855.894,1.399.195474.34925.372712.708399.531,1.076q.525,1.225.525,2.475v7.9q0,1.85-.925,3.4t-2.45,2.45-3.375.9h-29.25Zm81.8,0h-22.5q-1.85,0-3.4-.9t-2.45-2.45-.9-3.4v-22.5q0-1.85.9-3.4t2.45-2.45t3.4-.9h22.5q1.85,0,3.375.9t2.45,2.45.925,3.4v22.5q0,1.85-.925,3.4t-2.45,2.45-3.375.9ZM142.5,29.95h22.1c.121781.001396.24289-.018225.358-.058.117431-.042183.225219-.107468.317-.192.169837-.152638.269004-.368706.274-.597.000751-.017656.001084-.035328.001-.053v-22.1c.001073-.107466-.016174-.214328-.051-.316-.045402-.128394-.122443-.243267-.224-.334-.168232-.153105-.385635-.241059-.613-.248-.020647-.001186-.04132-.001853-.062-.002h-22.1c-.223627-.000284-.439332.082789-.605.233-.006731.005591-.013398.011258-.02.017-.170088.152874-.269279.369356-.274.598-.000735.017323-.001069.034661-.001.052v22.1c-.001073.107466.016174.214328.051.316.045402.128394.122443.243267.224.334.0872.081096.188546.145497.299.19.103911.040377.214522.060735.326.06Zm-52.55,0h22.1c.121781.001396.24289-.018225.358-.058.117431-.042183.225219-.107468.317-.192.169837-.152638.269004-.368706.274-.597.000751-.017656.001084-.035328.001-.053v-7.45c.001073-.107466-.016174-.214328-.051-.316-.045402-.128394-.122443-.243267-.224-.334-.168232-.153105-.385635-.241059-.613-.248-.020647-.001186-.04132-.001853-.062-.002h-22.1c-.223627-.000284-.439332.082789-.605.233-.006731.005591-.013398.011258-.02.017-.170088.152874-.269279.369356-.274.598-.000735.017323-.001069.034661-.001.052v7.45c-.001073.107466.016174.214328.051.316.045402.128394.122443.243267.224.334.0872.081096.188546.145497.299.19.103911.040377.214522.060735.326.06Zm0-15.3h20.65c.107408.001395.214269-.015513.316-.05.1285-.045686.243384-.123078.334-.225.080994-.086902.145389-.187901.19-.298.040501-.104224.060861-.215186.06-.327v-6.8c.001013-.101463-.0128-.20253-.041-.3-.039094-.1324-.110982-.252786-.209-.35-.135938-.135554-.314115-.220585-.505-.241-.048097-.006035-.096526-.00904-.145-.009h-20.65c-.223627-.000284-.439332.082789-.605.233-.006731.005591-.013398.011258-.02.017-.170088.152874-.269279.369356-.274.598-.000735.017323-.001069.034661-.001.052v6.8c-.000107.199995.071571.393387.202.545.023045.027814.047406.054511.073.08q.275.275.625.275ZM130.35,36h-5.95v-5.95h5.95v5.95Z"
                        transform="matrix(.731875 0 0 0.731875 33.763641 4.82625)" fill="none" fill-rule="evenodd"
                        stroke="#000" stroke-width="3.77953" stroke-linecap="round" />
                </svg>

                